<svg version="1.1" id="Layer_1" xmlns="http://www.w3.org/2000/svg" xmlns:xlink="http://www.w3.org/1999/xlink" x="0px" y="0px"
	 width="100%" viewBox="0 0 512 512" enable-background="new 0 0 512 512" xml:space="preserve">
<path fill="#fff" opacity="1.000000" stroke="none" 
	d="
M381.468658,513.000000 
	C376.970154,510.330536 372.165894,510.876526 367.740295,509.890503 
	C338.851898,503.453949 311.775055,492.471313 285.997589,478.041779 
	C265.550049,466.595764 246.084747,453.696869 227.493408,439.452545 
	C209.044571,425.317383 191.427002,410.232605 174.229721,394.581207 
	C164.884674,386.076202 155.686569,377.358307 146.854095,368.428925 
	C124.692406,346.024170 103.251068,322.922760 83.699203,298.074585 
	C61.769707,270.204712 41.764942,241.177917 26.315441,209.228485 
	C15.027082,185.884232 6.023492,161.687439 2.527792,135.760727 
	C2.423504,134.987244 1.845011,134.277695 1.243805,133.269165 
	C1.000000,116.645775 1.000000,100.291542 1.311876,83.285698 
	C2.642750,78.334625 3.653439,74.033188 4.682316,69.736099 
	C7.658284,57.307034 13.625825,46.519978 23.204262,38.057121 
	C33.084671,29.327463 45.152424,23.837605 56.173996,16.791267 
	C64.677620,11.354712 73.801178,6.933661 82.000000,1.000000 
	C89.020950,1.000000 96.041893,1.000000 103.531418,1.000000 
	C118.018089,8.334029 124.335243,22.329559 132.590668,34.519833 
	C151.206757,62.009087 169.426682,89.766693 187.798553,117.421257 
	C196.804077,130.976990 193.534485,149.841965 180.671341,159.679031 
	C168.424408,169.044861 156.219452,178.471115 144.183029,188.104431 
	C138.093414,192.978241 135.507080,197.757324 140.125549,206.282547 
	C151.620178,227.500473 164.859100,247.409790 180.699158,265.732452 
	C191.140152,277.809875 202.060089,289.459808 213.337662,300.624908 
	C226.636063,313.790710 240.135605,326.854492 254.704880,338.761963 
	C271.235718,352.272552 289.010559,363.660736 307.670959,373.925354 
	C316.414093,378.734741 322.383636,374.454895 326.520813,369.043335 
	C336.378113,356.149597 345.630157,342.701752 356.434967,330.650696 
	C366.323334,319.621704 383.014862,317.325775 397.416229,326.471588 
	C409.336182,334.041565 420.992065,342.027985 432.749359,349.853302 
	C454.042938,364.025604 475.304901,378.245514 496.622803,392.381073 
	C503.852661,397.175049 509.476654,403.241608 512.839172,411.697876 
	C513.000000,417.688049 513.000000,423.376068 512.855103,429.844513 
	C503.930603,447.992706 493.076202,464.144592 483.204041,480.871185 
	C473.826294,496.760040 459.800964,506.080841 441.749847,509.820679 
	C438.165649,510.563263 434.086945,510.323151 431.000000,513.000000 
	C414.645782,513.000000 398.291534,513.000000 381.468658,513.000000 
M96.837036,283.741241 
	C103.170509,291.605072 109.558830,299.413116 116.136986,307.085327 
	C131.707458,325.245392 148.272629,342.419769 165.295929,359.204865 
	C179.030869,372.747620 193.092896,385.884216 207.672546,398.526825 
	C224.231339,412.885742 241.413239,426.416931 259.367371,438.913483 
	C284.785614,456.605255 311.685211,471.675171 340.852814,482.433258 
	C357.541260,488.588623 374.703979,493.065002 392.401489,494.419952 
	C407.636688,495.586426 423.010071,495.216034 437.975037,491.341644 
	C447.275421,488.933838 456.425354,485.001495 462.066071,477.254456 
	C473.691895,461.287354 483.130463,443.850372 493.015869,426.749084 
	C496.461914,420.787537 494.923798,415.120544 489.148010,411.124573 
	C481.362000,405.737762 473.422150,400.573303 465.544586,395.319000 
	C439.290802,377.807892 413.053680,360.271667 386.767181,342.809845 
	C380.505951,338.650604 373.255768,339.729156 368.933441,345.317505 
	C359.197845,357.904755 349.477142,370.504028 339.834869,383.162720 
	C332.761322,392.449188 319.630493,397.372589 308.310303,394.373840 
	C294.422424,390.694855 282.905975,382.191833 270.996490,374.771393 
	C245.048508,358.603943 223.100510,337.431244 201.395264,316.202911 
	C189.194702,304.270416 177.674942,291.568359 166.387421,278.682709 
	C148.769272,258.570099 133.916931,236.715195 122.012657,212.819778 
	C115.416206,199.578766 118.804802,183.790207 130.361603,174.629578 
	C142.311600,165.157288 154.375061,155.826172 166.476639,146.547729 
	C174.705414,140.238602 175.754288,133.790390 169.976456,125.161507 
	C148.176437,92.604279 126.242432,60.133163 104.843178,27.313843 
	C99.797981,19.576216 92.779541,16.838350 83.351913,22.793007 
	C72.267174,29.794329 61.126266,36.759876 49.624313,43.034458 
	C34.207767,51.444546 24.523149,63.626068 21.518131,81.090279 
	C18.993505,95.762589 18.808851,110.417381 20.136513,125.230942 
	C21.375359,139.053528 24.670906,152.372177 28.939083,165.439346 
	C38.178574,193.726318 52.103951,219.751617 68.344872,244.579056 
	C77.057594,257.898193 86.396286,270.774445 96.837036,283.741241 
z"/>
<path fill="#fff" opacity="1.000000" stroke="none" 
	d="
M296.932831,87.362625 
	C290.802643,87.319687 284.878601,87.930344 282.431458,80.844864 
	C280.263763,74.568504 284.352142,68.787918 291.182495,68.665260 
	C312.184113,68.288101 332.404907,72.477783 351.830963,80.081261 
	C375.412415,89.311150 395.711548,103.686081 412.556488,122.514816 
	C431.601044,143.802246 444.282501,168.594894 450.255432,196.607849 
	C452.011047,204.841644 453.766449,213.152817 453.346130,221.688278 
	C453.238403,223.875641 453.796143,225.951035 454.165466,228.079788 
	C455.161194,233.819046 451.393951,239.754059 446.639740,240.305313 
	C439.757507,241.103302 436.333923,238.217056 435.641144,230.815704 
	C434.315277,216.651077 433.187286,202.453873 428.650848,188.832565 
	C414.785645,147.200577 387.911316,117.123306 347.935516,99.105019 
	C331.965607,91.906898 314.880768,88.540779 296.932831,87.362625 
z"/>
<path fill="#fff" opacity="1.000000" stroke="none" 
	d="
M398.370544,199.956696 
	C401.896698,210.529343 402.239471,221.154251 402.878113,231.716339 
	C403.114258,235.621521 399.474182,239.812469 395.957977,240.325912 
	C390.081451,241.184006 386.303009,238.921722 384.597473,234.029129 
	C382.689575,228.556000 383.872711,222.863968 382.872070,217.269516 
	C378.799377,194.498856 368.390381,175.657349 350.663666,160.620010 
	C333.488403,146.050476 313.665070,139.174576 291.435028,138.367523 
	C285.852417,138.164841 281.824402,134.236420 281.744232,129.023163 
	C281.661774,123.662598 285.859497,119.575592 291.808502,119.675880 
	C319.351227,120.140213 343.590851,129.161835 364.576416,147.240219 
	C381.040741,161.423721 391.933594,178.978165 398.370544,199.956696 
z"/>
<path fill="#fff" opacity="1.000000" stroke="none" 
	d="
M332.676727,187.349487 
	C345.281738,199.050171 351.237946,213.312943 351.332092,230.076477 
	C351.369965,236.815277 348.746277,240.013809 343.164886,240.337463 
	C337.295837,240.677826 333.082245,237.161026 332.791443,230.853668 
	C332.462341,223.714645 330.725128,217.111679 327.100525,211.003555 
	C320.065674,199.148514 309.916260,192.053024 296.046570,190.273178 
	C291.334869,189.668564 285.882843,190.288864 283.018768,184.805222 
	C279.294739,177.675049 283.751160,170.454361 292.379669,170.754471 
	C307.632263,171.285019 321.285583,176.229813 332.676727,187.349487 
z"/>
</svg>