<svg version="1.1" id="Layer_1" xmlns="http://www.w3.org/2000/svg" xmlns:xlink="http://www.w3.org/1999/xlink" x="0px" y="0px"
	 width="100%" viewBox="0 0 512 512" enable-background="new 0 0 512 512" xml:space="preserve">
<path fill="#d71921" opacity="1.000000" stroke="none" 
	d="
M513.000000,250.000000 
	C513.000000,260.020905 513.000000,270.041779 512.638977,280.638855 
	C509.322968,292.492859 499.714600,299.997162 488.171661,299.997437 
	C333.972656,300.001251 179.773590,300.033752 25.574850,299.828430 
	C21.189156,299.822601 16.649349,297.636078 12.459611,295.823364 
	C6.061243,293.055023 3.877646,286.681946 1.000000,281.000000 
	C1.000000,270.979095 1.000000,260.958221 1.360199,250.362030 
	C5.343083,237.897995 12.455215,233.141479 23.372896,231.121521 
	C26.126392,230.612061 26.856256,229.773987 27.070309,227.134888 
	C27.901310,216.889236 28.197323,206.505081 30.189013,196.469482 
	C33.777672,178.387161 39.256046,160.798431 46.971394,143.953049 
	C56.585495,122.962021 68.707909,103.491867 84.294579,86.564346 
	C94.281387,75.718414 105.706444,66.110382 117.051811,56.623142 
	C132.090134,44.047768 149.307861,34.879688 167.340576,27.370085 
	C174.497681,24.389555 181.226364,22.324209 183.707596,13.195433 
	C185.526535,6.503296 192.836761,3.801842 199.000000,1.000000 
	C237.354233,1.000000 275.708466,1.000000 314.638916,1.361051 
	C324.585052,4.270438 330.517151,10.173725 333.107056,19.594992 
	C333.473175,20.926933 334.954681,22.414083 336.276825,22.951721 
	C354.321075,30.289360 371.600464,38.885345 387.857208,49.826527 
	C407.673615,63.163425 424.663574,79.364098 439.277832,97.974815 
	C456.274719,119.619728 468.768250,143.829086 476.990479,170.169174 
	C482.758545,188.647263 486.542450,207.477432 486.945801,226.883163 
	C487.006287,229.792145 487.885834,230.670807 490.871704,231.177567 
	C494.555389,231.802719 498.124420,233.506088 501.553497,235.141052 
	C507.811188,238.124695 510.002075,244.410263 513.000000,250.000000 
M411.506927,94.004631 
	C389.762482,70.762421 363.889923,53.690292 334.000000,41.914684 
	C334.000000,44.119217 334.000000,45.944347 334.000000,47.769478 
	C334.000000,94.763557 334.003540,141.757629 333.995850,188.751709 
	C333.994812,195.102783 328.603058,198.991409 322.614532,197.003036 
	C317.853271,195.422165 316.004578,192.256088 316.003448,185.544296 
	C315.996552,144.549469 316.000000,103.554626 316.000000,62.559792 
	C316.000000,50.894596 316.022552,39.229332 315.988800,27.564234 
	C315.975464,22.949963 313.258148,19.069643 309.722015,19.044062 
	C295.272888,18.939531 280.822571,19.000473 266.000000,19.000473 
	C266.000000,21.201708 266.000000,22.992857 266.000000,24.784004 
	C266.000000,84.609795 266.000946,144.435593 265.998566,204.261383 
	C265.998322,210.636002 262.549103,215.086624 257.195770,214.925690 
	C251.416977,214.751984 247.837189,210.139496 247.860245,204.148132 
	C248.090485,144.323227 248.000000,84.497078 248.000000,24.671280 
	C248.000000,22.890430 248.000000,21.109579 248.000000,19.000000 
	C234.419098,19.000000 221.291794,18.999929 208.164474,19.000027 
	C200.327225,19.000086 198.000717,21.326128 198.000565,29.176714 
	C197.999496,80.836868 198.000000,132.497025 198.000000,184.157181 
	C198.000000,185.157059 198.038528,186.158661 197.993607,187.156509 
	C197.715698,193.329117 193.710403,197.923904 188.568726,197.993622 
	C183.659073,198.060165 180.000061,193.425507 180.000046,187.139252 
	C179.999954,140.478470 180.000000,93.817673 180.000000,47.156887 
	C180.000000,45.456348 180.000000,43.755810 180.000000,41.800720 
	C83.761177,79.839851 44.109978,171.506760 45.553650,230.738678 
	C186.615082,230.738678 327.675873,230.738678 469.432098,230.738678 
	C466.485229,178.203705 447.649811,132.849625 411.506927,94.004631 
M478.470520,282.000000 
	C481.136230,282.000000 483.802399,282.032257 486.467560,281.993256 
	C492.010590,281.912140 494.919891,279.061859 494.988037,273.572052 
	C495.045959,268.907745 495.000427,264.242126 494.999878,259.577087 
	C494.998932,251.332535 492.711914,249.000366 484.618408,249.000336 
	C332.838074,248.999863 181.057709,249.000000 29.277363,249.000000 
	C28.610929,249.000000 27.944139,248.985718 27.278116,249.002289 
	C22.076851,249.131729 19.098711,252.023621 19.015850,257.182465 
	C18.940941,261.846313 19.335560,266.541992 18.925762,271.170776 
	C18.210882,279.245514 22.853857,282.129547 29.636000,282.122284 
	C178.917038,281.962219 328.198303,282.000000 478.470520,282.000000 
z"/>
<path fill="transparent" opacity="1.000000" stroke="none" 
	d="
M1.000000,281.468658 
	C3.877646,286.681946 6.061243,293.055023 12.459611,295.823364 
	C16.649349,297.636078 21.189156,299.822601 25.574850,299.828430 
	C179.773590,300.033752 333.972656,300.001251 488.171661,299.997437 
	C499.714600,299.997162 509.322968,292.492859 512.638977,281.107544 
	C513.000000,314.020905 513.000000,347.041779 512.645142,380.431183 
	C509.367096,379.199799 506.514374,376.396362 503.507812,376.220367 
	C493.542328,375.636871 483.521423,375.998352 473.521759,376.001282 
	C471.349274,376.001892 469.620697,376.198181 468.889954,373.035400 
	C464.974670,356.089447 447.703308,342.037018 429.407471,342.027954 
	C316.911316,341.972137 204.415192,341.987396 91.919075,342.042389 
	C87.011742,342.044800 82.015450,342.193451 77.215858,343.097931 
	C66.783730,345.063812 58.540627,350.619629 51.909737,359.035797 
	C45.864368,366.708832 44.163708,375.726227 42.733551,385.000000 
	C32.537041,385.000000 22.711514,385.164307 12.895659,384.927643 
	C8.292892,384.816620 4.091834,385.071411 1.000000,389.000000 
	C1.000000,353.312439 1.000000,317.624878 1.000000,281.468658 
z"/>
<path fill="#d71921" opacity="1.000000" stroke="none" 
	d="
M1.000000,389.468658 
	C4.091834,385.071411 8.292892,384.816620 12.895659,384.927643 
	C22.711514,385.164307 32.537041,385.000000 42.733551,385.000000 
	C44.163708,375.726227 45.864368,366.708832 51.909737,359.035797 
	C58.540627,350.619629 66.783730,345.063812 77.215858,343.097931 
	C82.015450,342.193451 87.011742,342.044800 91.919075,342.042389 
	C204.415192,341.987396 316.911316,341.972137 429.407471,342.027954 
	C447.703308,342.037018 464.974670,356.089447 468.889954,373.035400 
	C469.620697,376.198181 471.349274,376.001892 473.521759,376.001282 
	C483.521423,375.998352 493.542328,375.636871 503.507812,376.220367 
	C506.514374,376.396362 509.367096,379.199799 512.645142,380.899841 
	C513.000000,406.020905 513.000000,431.041779 512.647217,456.629272 
	C510.880920,460.995972 507.927063,462.049469 504.158569,462.025665 
	C492.872711,461.954346 481.586182,462.000000 470.498749,462.000000 
	C465.775574,483.762207 454.333435,499.757874 433.849579,508.569611 
	C429.980438,510.234070 425.953918,511.532623 422.000000,513.000000 
	C396.312439,513.000000 370.624878,513.000000 344.330261,512.612793 
	C342.130127,511.959198 340.470001,511.895142 338.954895,511.393280 
	C329.701050,508.327820 320.425171,505.314667 311.261505,501.994629 
	C298.461121,497.357086 288.278534,488.683350 278.993500,479.197662 
	C273.157074,473.235138 268.719604,465.904419 263.644745,459.194885 
	C260.299042,454.771576 253.279083,454.819214 250.166565,459.453949 
	C243.632080,469.184235 236.618149,478.364655 227.607834,486.116974 
	C217.554962,494.766357 206.537811,501.523590 194.147217,505.924835 
	C186.256073,508.727814 178.059570,510.671173 170.000000,513.000000 
	C144.645767,513.000000 119.291542,513.000000 93.339905,512.620605 
	C68.901024,507.760437 53.700035,493.293457 45.648144,471.000000 
	C34.705070,471.000000 24.218546,470.854492 13.739045,471.062653 
	C8.649800,471.163727 4.318720,470.028809 1.000000,466.000000 
	C1.000000,440.645782 1.000000,415.291534 1.000000,389.468658 
M407.473969,495.000000 
	C410.971863,494.993195 414.652100,495.701508 417.938141,494.863708 
	C439.506500,489.364777 452.109467,474.495117 452.837158,452.495636 
	C453.574768,430.197083 453.267883,407.850800 452.904968,385.533783 
	C452.666534,370.871307 440.671204,359.945923 427.063446,359.955353 
	C313.616364,360.034058 200.169205,359.997070 86.722069,360.024536 
	C84.781487,360.024994 82.756821,360.102478 80.914009,360.636383 
	C68.179977,364.325439 61.033131,374.014130 61.009171,387.745728 
	C60.973709,408.069489 60.894859,428.394196 61.039982,448.717010 
	C61.125156,460.644745 63.675114,471.647247 72.222633,480.916901 
	C80.195564,489.563477 89.542229,494.745544 101.245087,494.933807 
	C117.566589,495.196411 133.901825,494.719391 150.219193,495.088806 
	C163.258438,495.384003 175.841339,493.747314 187.999512,488.983124 
	C204.871780,482.371735 218.817947,471.936401 229.354294,457.142334 
	C235.961273,447.865479 241.956161,438.358215 255.359772,437.669006 
	C262.810089,437.285889 272.969513,440.665985 277.749908,447.465118 
	C284.202728,456.642944 290.545013,465.691284 299.326874,473.058258 
	C315.413818,486.553375 333.688141,494.149048 354.510864,494.876251 
	C371.815002,495.480591 389.157043,495.000000 407.473969,495.000000 
M42.996059,451.290558 
	C42.996059,443.543243 42.996059,435.795959 42.996059,428.364807 
	C34.531120,428.364807 26.787668,428.364807 19.368622,428.364807 
	C19.368622,436.806976 19.368622,444.882507 19.368622,453.372314 
	C27.482782,452.988098 35.213161,452.622070 42.996059,451.290558 
M494.999725,422.677612 
	C494.222046,421.785583 493.465790,420.141998 492.663361,420.119110 
	C485.556183,419.916656 478.440796,420.001526 471.230469,420.001526 
	C471.230469,428.195160 471.230469,435.932434 471.230469,443.767242 
	C479.200043,443.767242 486.937256,443.767242 495.000000,443.767242 
	C495.000000,436.910431 495.000000,430.281006 494.999725,422.677612 
M474.667664,402.000000 
	C481.388184,402.000000 488.108704,402.000000 494.732117,402.000000 
	C494.732117,399.032471 494.732117,396.638092 494.732117,394.206451 
	C486.761780,394.206451 479.060913,394.206451 470.061798,394.206451 
	C472.876343,396.715546 467.833527,401.040161 474.667664,402.000000 
M42.198345,409.952515 
	C42.511169,407.706787 42.823994,405.461060 43.129684,403.266541 
	C34.616531,403.266541 26.910978,403.266541 19.250690,403.266541 
	C19.250690,405.599823 19.250690,407.660980 19.250690,409.996735 
	C26.746937,409.996735 33.996330,409.996735 42.198345,409.952515 
z"/>
<path fill="transparent" opacity="1.000000" stroke="none" 
	d="
M198.531342,1.000000 
	C192.836761,3.801842 185.526535,6.503296 183.707596,13.195433 
	C181.226364,22.324209 174.497681,24.389555 167.340576,27.370085 
	C149.307861,34.879688 132.090134,44.047768 117.051811,56.623142 
	C105.706444,66.110382 94.281387,75.718414 84.294579,86.564346 
	C68.707909,103.491867 56.585495,122.962021 46.971394,143.953049 
	C39.256046,160.798431 33.777672,178.387161 30.189013,196.469482 
	C28.197323,206.505081 27.901310,216.889236 27.070309,227.134888 
	C26.856256,229.773987 26.126392,230.612061 23.372896,231.121521 
	C12.455215,233.141479 5.343083,237.897995 1.360199,249.893372 
	C1.000000,167.081299 1.000000,84.162582 1.000000,1.000000 
	C66.687363,1.000000 132.375015,1.000000 198.531342,1.000000 
z"/>
<path fill="transparent" opacity="1.000000" stroke="none" 
	d="
M513.000000,249.531342 
	C510.002075,244.410263 507.811188,238.124695 501.553497,235.141052 
	C498.124420,233.506088 494.555389,231.802719 490.871704,231.177567 
	C487.885834,230.670807 487.006287,229.792145 486.945801,226.883163 
	C486.542450,207.477432 482.758545,188.647263 476.990479,170.169174 
	C468.768250,143.829086 456.274719,119.619728 439.277832,97.974815 
	C424.663574,79.364098 407.673615,63.163425 387.857208,49.826527 
	C371.600464,38.885345 354.321075,30.289360 336.276825,22.951721 
	C334.954681,22.414083 333.473175,20.926933 333.107056,19.594992 
	C330.517151,10.173725 324.585052,4.270438 315.107544,1.361051 
	C380.935364,1.000000 446.870728,1.000000 513.000000,1.000000 
	C513.000000,83.687462 513.000000,166.375076 513.000000,249.531342 
z"/>
<path fill="transparent" opacity="1.000000" stroke="none" 
	d="
M170.468658,513.000000 
	C178.059570,510.671173 186.256073,508.727814 194.147217,505.924835 
	C206.537811,501.523590 217.554962,494.766357 227.607834,486.116974 
	C236.618149,478.364655 243.632080,469.184235 250.166565,459.453949 
	C253.279083,454.819214 260.299042,454.771576 263.644745,459.194885 
	C268.719604,465.904419 273.157074,473.235138 278.993500,479.197662 
	C288.278534,488.683350 298.461121,497.357086 311.261505,501.994629 
	C320.425171,505.314667 329.701050,508.327820 338.954895,511.393280 
	C340.470001,511.895142 342.130127,511.959198 343.861603,512.612793 
	C286.312439,513.000000 228.624878,513.000000 170.468658,513.000000 
z"/>
<path fill="transparent" opacity="1.000000" stroke="none" 
	d="
M422.468689,513.000000 
	C425.953918,511.532623 429.980438,510.234070 433.849579,508.569611 
	C454.333435,499.757874 465.775574,483.762207 470.498749,462.000000 
	C481.586182,462.000000 492.872711,461.954346 504.158569,462.025665 
	C507.927063,462.049469 510.880920,460.995972 512.647217,457.097931 
	C513.000000,475.610931 513.000000,494.221893 513.000000,513.000000 
	C482.979309,513.000000 452.958313,513.000000 422.468689,513.000000 
z"/>
<path fill="transparent" opacity="1.000000" stroke="none" 
	d="
M1.000000,466.468658 
	C4.318720,470.028809 8.649800,471.163727 13.739045,471.062653 
	C24.218546,470.854492 34.705070,471.000000 45.648144,471.000000 
	C53.700035,493.293457 68.901024,507.760437 92.871246,512.620605 
	C62.430161,513.000000 31.860323,513.000000 1.000000,513.000000 
	C1.000000,497.647003 1.000000,482.292145 1.000000,466.468658 
z"/>
<path fill="transparent" opacity="1.000000" stroke="none" 
	d="
M411.756195,94.256729 
	C447.649811,132.849625 466.485229,178.203705 469.432098,230.738678 
	C327.675873,230.738678 186.615082,230.738678 45.553650,230.738678 
	C44.109978,171.506760 83.761177,79.839851 180.000000,41.800720 
	C180.000000,43.755810 180.000000,45.456348 180.000000,47.156887 
	C180.000000,93.817673 179.999954,140.478470 180.000046,187.139252 
	C180.000061,193.425507 183.659073,198.060165 188.568726,197.993622 
	C193.710403,197.923904 197.715698,193.329117 197.993607,187.156509 
	C198.038528,186.158661 198.000000,185.157059 198.000000,184.157181 
	C198.000000,132.497025 197.999496,80.836868 198.000565,29.176714 
	C198.000717,21.326128 200.327225,19.000086 208.164474,19.000027 
	C221.291794,18.999929 234.419098,19.000000 248.000000,19.000000 
	C248.000000,21.109579 248.000000,22.890430 248.000000,24.671280 
	C248.000000,84.497078 248.090485,144.323227 247.860245,204.148132 
	C247.837189,210.139496 251.416977,214.751984 257.195770,214.925690 
	C262.549103,215.086624 265.998322,210.636002 265.998566,204.261383 
	C266.000946,144.435593 266.000000,84.609795 266.000000,24.784004 
	C266.000000,22.992857 266.000000,21.201708 266.000000,19.000473 
	C280.822571,19.000473 295.272888,18.939531 309.722015,19.044062 
	C313.258148,19.069643 315.975464,22.949963 315.988800,27.564234 
	C316.022552,39.229332 316.000000,50.894596 316.000000,62.559792 
	C316.000000,103.554626 315.996552,144.549469 316.003448,185.544296 
	C316.004578,192.256088 317.853271,195.422165 322.614532,197.003036 
	C328.603058,198.991409 333.994812,195.102783 333.995850,188.751709 
	C334.003540,141.757629 334.000000,94.763557 334.000000,47.769478 
	C334.000000,45.944347 334.000000,44.119217 334.000000,41.914684 
	C363.889923,53.690292 389.762482,70.762421 411.756195,94.256729 
z"/>
<path fill="transparent" opacity="1.000000" stroke="none" 
	d="
M477.975037,282.000000 
	C328.198303,282.000000 178.917038,281.962219 29.636000,282.122284 
	C22.853857,282.129547 18.210882,279.245514 18.925762,271.170776 
	C19.335560,266.541992 18.940941,261.846313 19.015850,257.182465 
	C19.098711,252.023621 22.076851,249.131729 27.278116,249.002289 
	C27.944139,248.985718 28.610929,249.000000 29.277363,249.000000 
	C181.057709,249.000000 332.838074,248.999863 484.618408,249.000336 
	C492.711914,249.000366 494.998932,251.332535 494.999878,259.577087 
	C495.000427,264.242126 495.045959,268.907745 494.988037,273.572052 
	C494.919891,279.061859 492.010590,281.912140 486.467560,281.993256 
	C483.802399,282.032257 481.136230,282.000000 477.975037,282.000000 
z"/>
<path fill="transparent" opacity="1.000000" stroke="none" 
	d="
M406.978149,495.000000 
	C389.157043,495.000000 371.815002,495.480591 354.510864,494.876251 
	C333.688141,494.149048 315.413818,486.553375 299.326874,473.058258 
	C290.545013,465.691284 284.202728,456.642944 277.749908,447.465118 
	C272.969513,440.665985 262.810089,437.285889 255.359772,437.669006 
	C241.956161,438.358215 235.961273,447.865479 229.354294,457.142334 
	C218.817947,471.936401 204.871780,482.371735 187.999512,488.983124 
	C175.841339,493.747314 163.258438,495.384003 150.219193,495.088806 
	C133.901825,494.719391 117.566589,495.196411 101.245087,494.933807 
	C89.542229,494.745544 80.195564,489.563477 72.222633,480.916901 
	C63.675114,471.647247 61.125156,460.644745 61.039982,448.717010 
	C60.894859,428.394196 60.973709,408.069489 61.009171,387.745728 
	C61.033131,374.014130 68.179977,364.325439 80.914009,360.636383 
	C82.756821,360.102478 84.781487,360.024994 86.722069,360.024536 
	C200.169205,359.997070 313.616364,360.034058 427.063446,359.955353 
	C440.671204,359.945923 452.666534,370.871307 452.904968,385.533783 
	C453.267883,407.850800 453.574768,430.197083 452.837158,452.495636 
	C452.109467,474.495117 439.506500,489.364777 417.938141,494.863708 
	C414.652100,495.701508 410.971863,494.993195 406.978149,495.000000 
M222.140091,380.700012 
	C219.363449,379.133362 216.597626,376.225220 213.808548,376.202728 
	C176.318710,375.900208 138.825500,375.946686 101.333420,376.035767 
	C91.374092,376.059418 79.098343,385.417908 78.242340,394.983826 
	C77.034615,408.480316 76.928299,422.121124 77.190086,435.684052 
	C77.320946,442.463867 81.674683,445.498444 87.732697,444.999329 
	C92.867050,444.576294 94.999680,441.438507 94.999924,434.305054 
	C95.000244,424.807007 94.898247,415.307556 95.029060,405.811310 
	C95.156013,396.594727 99.406952,393.819763 106.733170,393.877441 
	C141.557190,394.151489 176.384537,394.000153 211.210709,393.999878 
	C220.803665,393.999786 223.471161,391.055664 222.140091,380.700012 
M274.036926,383.330170 
	C273.257965,378.087189 270.135162,375.859619 264.935028,375.972321 
	C259.295288,376.094543 253.649765,375.931030 248.008820,376.021088 
	C243.189255,376.098022 238.936569,380.487610 239.040985,385.083130 
	C239.149475,389.858154 243.243393,393.917877 248.174942,393.983337 
	C253.650421,394.056000 259.127625,394.009857 264.604034,393.997498 
	C271.325958,393.982361 273.852600,391.409180 274.036926,383.330170 
z"/>
<path fill="transparent" opacity="1.000000" stroke="none" 
	d="
M42.969799,451.773315 
	C35.213161,452.622070 27.482782,452.988098 19.368622,453.372314 
	C19.368622,444.882507 19.368622,436.806976 19.368622,428.364807 
	C26.787668,428.364807 34.531120,428.364807 42.996059,428.364807 
	C42.996059,435.795959 42.996059,443.543243 42.969799,451.773315 
z"/>
<path fill="transparent" opacity="1.000000" stroke="none" 
	d="
M494.999878,423.164612 
	C495.000000,430.281006 495.000000,436.910431 495.000000,443.767242 
	C486.937256,443.767242 479.200043,443.767242 471.230469,443.767242 
	C471.230469,435.932434 471.230469,428.195160 471.230469,420.001526 
	C478.440796,420.001526 485.556183,419.916656 492.663361,420.119110 
	C493.465790,420.141998 494.222046,421.785583 494.999878,423.164612 
z"/>
<path fill="transparent" opacity="1.000000" stroke="none" 
	d="
M474.184967,401.999878 
	C467.833527,401.040161 472.876343,396.715546 470.061798,394.206451 
	C479.060913,394.206451 486.761780,394.206451 494.732117,394.206451 
	C494.732117,396.638092 494.732117,399.032471 494.732117,402.000000 
	C488.108704,402.000000 481.388184,402.000000 474.184967,401.999878 
z"/>
<path fill="transparent" opacity="1.000000" stroke="none" 
	d="
M41.722031,409.974609 
	C33.996330,409.996735 26.746937,409.996735 19.250690,409.996735 
	C19.250690,407.660980 19.250690,405.599823 19.250690,403.266541 
	C26.910978,403.266541 34.616531,403.266541 43.129684,403.266541 
	C42.823994,405.461060 42.511169,407.706787 41.722031,409.974609 
z"/>
<path fill="#d71921" opacity="1.000000" stroke="none" 
	d="
M222.455353,380.971985 
	C223.471161,391.055664 220.803665,393.999786 211.210709,393.999878 
	C176.384537,394.000153 141.557190,394.151489 106.733170,393.877441 
	C99.406952,393.819763 95.156013,396.594727 95.029060,405.811310 
	C94.898247,415.307556 95.000244,424.807007 94.999924,434.305054 
	C94.999680,441.438507 92.867050,444.576294 87.732697,444.999329 
	C81.674683,445.498444 77.320946,442.463867 77.190086,435.684052 
	C76.928299,422.121124 77.034615,408.480316 78.242340,394.983826 
	C79.098343,385.417908 91.374092,376.059418 101.333420,376.035767 
	C138.825500,375.946686 176.318710,375.900208 213.808548,376.202728 
	C216.597626,376.225220 219.363449,379.133362 222.455353,380.971985 
z"/>
<path fill="#d71921" opacity="1.000000" stroke="none" 
	d="
M274.255035,383.655396 
	C273.852600,391.409180 271.325958,393.982361 264.604034,393.997498 
	C259.127625,394.009857 253.650421,394.056000 248.174942,393.983337 
	C243.243393,393.917877 239.149475,389.858154 239.040985,385.083130 
	C238.936569,380.487610 243.189255,376.098022 248.008820,376.021088 
	C253.649765,375.931030 259.295288,376.094543 264.935028,375.972321 
	C270.135162,375.859619 273.257965,378.087189 274.255035,383.655396 
z"/>
</svg>