<?xml version="1.0" standalone="no"?>
<!DOCTYPE svg PUBLIC "-//W3C//DTD SVG 20010904//EN"
 "http://www.w3.org/TR/2001/REC-SVG-20010904/DTD/svg10.dtd">
<svg version="1.0" xmlns="http://www.w3.org/2000/svg"
 width="512.000000pt" height="512.000000pt" viewBox="0 0 512.000000 512.000000"
 preserveAspectRatio="xMidYMid meet">

<g transform="translate(0.000000,512.000000) scale(0.100000,-0.100000)"
fill="#fff" stroke="none">
<path d="M2315 5109 c-230 -23 -483 -85 -705 -171 -126 -50 -166 -83 -156
-130 8 -43 43 -78 76 -78 15 0 53 11 84 25 164 73 412 142 615 172 162 24 504
24 661 0 441 -67 843 -243 1175 -512 119 -97 313 -297 401 -415 611 -815 644
-1919 82 -2754 -136 -202 -131 -193 -123 -224 4 -15 54 -75 118 -139 l111
-113 -322 0 -322 0 0 322 0 323 108 -107 c124 -124 149 -136 200 -93 25 21 32
35 32 63 0 35 -12 50 -195 232 -182 181 -197 194 -231 194 -28 0 -42 -7 -60
-28 l-24 -27 0 -500 0 -500 25 -24 24 -25 500 0 c275 0 507 3 516 6 20 8 45
55 45 85 0 16 -50 74 -164 188 l-164 166 80 120 c138 208 256 468 324 715 212
770 57 1579 -427 2227 -94 125 -366 397 -489 490 -357 266 -748 430 -1190 498
-125 19 -477 28 -605 14z"/>
<path d="M2395 4774 c-269 -27 -540 -95 -720 -180 -68 -32 -86 -68 -62 -120
21 -42 60 -60 102 -45 17 5 72 26 122 46 428 165 927 175 1371 27 943 -316
1524 -1264 1376 -2249 -27 -181 -77 -351 -160 -540 -58 -132 -60 -154 -12
-187 27 -19 78 -21 101 -4 22 17 97 179 140 304 86 246 121 461 121 734 0 349
-64 639 -208 945 -317 671 -948 1139 -1686 1250 -102 15 -405 27 -485 19z"/>
<path d="M195 4495 c-16 -15 -25 -35 -25 -56 0 -29 20 -53 164 -198 l163 -166
-79 -120 c-208 -316 -337 -658 -394 -1050 -22 -148 -25 -524 -6 -660 66 -465
231 -868 505 -1234 93 -124 365 -396 490 -490 364 -271 768 -437 1232 -503 53
-7 184 -13 320 -13 244 1 354 12 565 60 199 44 479 146 516 186 28 31 24 87
-10 115 -36 32 -60 30 -153 -9 -171 -74 -381 -131 -593 -164 -159 -24 -501
-24 -660 0 -415 64 -786 217 -1110 461 -121 91 -321 284 -419 406 -459 570
-631 1310 -471 2030 67 304 232 659 421 906 30 39 39 60 39 89 0 35 -9 47
-112 152 l-112 113 322 0 322 0 0 -322 0 -322 -107 106 c-60 58 -118 109 -131
113 -56 17 -124 -54 -103 -107 5 -12 97 -110 205 -217 189 -188 196 -194 228
-187 18 3 43 17 56 32 l22 25 0 500 0 500 -25 24 -24 25 -506 0 -506 0 -24
-25z"/>
<path d="M2677 3988 c-36 -33 -1050 -1647 -1055 -1678 -3 -18 5 -37 23 -58
l27 -32 354 0 c308 0 354 -2 354 -15 0 -8 -16 -219 -35 -469 -47 -613 -46
-572 -12 -602 33 -28 76 -31 106 -6 32 27 1061 1664 1061 1688 0 12 -12 36
-26 53 l-26 31 -419 0 -420 0 -24 -25 c-27 -27 -33 -79 -12 -106 28 -37 50
-39 366 -39 171 0 311 -3 311 -6 0 -9 -743 -1184 -746 -1181 -2 1 10 171 27
377 16 206 29 383 29 393 0 10 -13 32 -29 48 l-29 29 -320 0 -320 0 375 595
c207 327 377 594 379 593 1 -2 -4 -79 -12 -173 -19 -235 -18 -278 5 -306 26
-32 92 -33 122 -2 21 20 24 46 50 375 39 488 39 485 5 514 -34 30 -78 31 -109
2z"/>
<path d="M611 3593 c-32 -22 -101 -170 -155 -334 -185 -553 -144 -1151 113
-1674 327 -664 939 -1108 1681 -1222 157 -24 473 -24 625 0 245 39 549 133
613 190 45 41 20 127 -42 143 -14 3 -48 -5 -87 -22 -786 -332 -1701 -140
-2288 482 -324 342 -513 773 -553 1256 -27 331 40 702 183 1007 46 99 48 129
13 165 -31 30 -69 34 -103 9z"/>
</g>
</svg>
