<svg id="Layer_1" data-name="Layer 1" xmlns="http://www.w3.org/2000/svg" viewBox="0 0 108.81 83.6"><defs><style>.cls-1{fill:#ed1c24;}</style></defs><path class="cls-1" d="M60.87,69.38H41a1.49,1.49,0,1,0,0,3H60.87a1.49,1.49,0,0,0,0-3Z" transform="translate(-38.02 -42.53)"/><path class="cls-1" d="M40.57,75.78l-.22-.18a.87.87,0,0,0-.27-.14,1.07,1.07,0,0,0-.27-.09,1.41,1.41,0,0,0-.86.09,1.77,1.77,0,0,0-.5.32,1.54,1.54,0,0,0,0,2.11,1.77,1.77,0,0,0,.5.32,1.81,1.81,0,0,0,.56.12l.3,0a1.07,1.07,0,0,0,.27-.09.87.87,0,0,0,.27-.14l.22-.18a1.58,1.58,0,0,0,.44-1A1.54,1.54,0,0,0,40.57,75.78Z" transform="translate(-38.02 -42.53)"/><path class="cls-1" d="M65.34,75.34H45.48a1.5,1.5,0,0,0,0,3H65.34a1.5,1.5,0,0,0,0-3Z" transform="translate(-38.02 -42.53)"/><path class="cls-1" d="M59.38,81.31H39.51a1.49,1.49,0,0,0,0,3H59.38a1.49,1.49,0,1,0,0-3Z" transform="translate(-38.02 -42.53)"/><path class="cls-1" d="M66.72,82.24a1.86,1.86,0,0,0-.32-.5,1.57,1.57,0,0,0-2.12,0,1.83,1.83,0,0,0-.31.5,1.34,1.34,0,0,0-.12.56,1.49,1.49,0,0,0,3,0A1.51,1.51,0,0,0,66.72,82.24Z" transform="translate(-38.02 -42.53)"/><path class="cls-1" d="M133,43a1.57,1.57,0,0,0-2.12,0,1.49,1.49,0,0,0,2.12,2.1A1.48,1.48,0,0,0,133,43Z" transform="translate(-38.02 -42.53)"/><path class="cls-1" d="M126,42.53H111a1.49,1.49,0,1,0,0,3H126a1.49,1.49,0,0,0,0-3Z" transform="translate(-38.02 -42.53)"/><path class="cls-1" d="M136.36,49.7a1.31,1.31,0,0,0-.09-.28.87.87,0,0,0-.14-.27,1.84,1.84,0,0,0-.17-.22,1.55,1.55,0,0,0-2.12,0l-.18.22a1.15,1.15,0,0,0-.14.27.9.9,0,0,0-.08.28,1.43,1.43,0,0,0,0,.29,1.47,1.47,0,0,0,1.46,1.49h0A1.48,1.48,0,0,0,136.39,50v0A1.36,1.36,0,0,0,136.36,49.7Z" transform="translate(-38.02 -42.53)"/><path class="cls-1" d="M128.93,48.49H118.49a1.5,1.5,0,0,0,0,3h10.44a1.5,1.5,0,0,0,0-3Z" transform="translate(-38.02 -42.53)"/><path class="cls-1" d="M130.42,111.14a4.48,4.48,0,1,0,4.48,4.48A4.48,4.48,0,0,0,130.42,111.14Zm0,6a1.49,1.49,0,1,1,1.49-1.49A1.49,1.49,0,0,1,130.42,117.11Z" transform="translate(-38.02 -42.53)"/><path class="cls-1" d="M83.28,113.58a3.54,3.54,0,1,0,3.54,3.54A3.53,3.53,0,0,0,83.28,113.58Zm0,4.71a1.18,1.18,0,1,1,1.18-1.17A1.18,1.18,0,0,1,83.28,118.29Z" transform="translate(-38.02 -42.53)"/><path class="cls-1" d="M65.34,113.58a3.54,3.54,0,1,0,3.54,3.54A3.53,3.53,0,0,0,65.34,113.58Zm0,4.71a1.18,1.18,0,1,1,1.18-1.17A1.17,1.17,0,0,1,65.34,118.29Z" transform="translate(-38.02 -42.53)"/><path class="cls-1" d="M146.79,91.53v-.16L141.3,70.8a1.48,1.48,0,0,0,1-1.84.43.43,0,0,0,0,0l-1.5-4.48a1.49,1.49,0,0,0-1.42-1H120V54.46A1.49,1.49,0,0,0,118.49,53H48.93a1.49,1.49,0,0,0-1.49,1.49V64.64a1.5,1.5,0,1,0,3,0V56H117v46.24H50.43V88.77a1.5,1.5,0,0,0-3,0v13.42H46a1.49,1.49,0,0,0-1.49,1.49v6A1.49,1.49,0,0,0,46,111.14h4.48v4.48a1.49,1.49,0,0,0,1.49,1.49h4.47a9,9,0,0,0,18,.49,9.1,9.1,0,0,0,.51,2.54,8.93,8.93,0,0,0,17.33-3H120.1a10.43,10.43,0,0,0,20.65,0h4.59a1.49,1.49,0,0,0,1.49-1.49V91.75A1.7,1.7,0,0,0,146.79,91.53ZM50.43,108.16h-3v-3h3Zm93-17.9H132.71l-2.29-3.43v-16h7.81ZM65.34,123.08a6,6,0,1,1,6-6A6,6,0,0,1,65.34,123.08Zm17.9,0a6,6,0,1,1,6-6A6,6,0,0,1,83.24,123.08Zm47.18,0a7.46,7.46,0,1,1,7.46-7.46A7.46,7.46,0,0,1,130.42,123.08Zm13.43-20.89h-4.48V97.72h4.48Zm0-7.46h-6a1.5,1.5,0,0,0-1.49,1.5v7.45a1.5,1.5,0,0,0,1.49,1.5h6v8.95h-3.1a10.43,10.43,0,0,0-20.65,0H91.67a8.93,8.93,0,0,0-17.32,2.54,9,9,0,0,0-17.43-2.54H53.41v-8.95h65.08a1.5,1.5,0,0,0,1.49-1.5V66.39H138.3l.49,1.5h-9.86a1.49,1.49,0,0,0-1.49,1.49v17.9a1.49,1.49,0,0,0,.25.82l3,4.48a1.51,1.51,0,0,0,1.24.66h11.94Z" transform="translate(-38.02 -42.53)"/></svg>