<svg id="Layer_1" data-name="Layer 1" xmlns="http://www.w3.org/2000/svg" viewBox="0 0 83.09 92.83"><defs><style>.cls-1{fill:#ed1c24;}</style></defs><path class="cls-1" d="M60.44,71.47H52.49a1.61,1.61,0,1,0,0,3.22h7.95a1.61,1.61,0,1,0,0-3.22Z" transform="translate(-50.88 -34.32)"/><path class="cls-1" d="M109.15,94.87l5.62,5.62a1.61,1.61,0,0,0,2.28-2.27l-5.62-5.62a1.61,1.61,0,0,0-2.28,2.27Z" transform="translate(-50.88 -34.32)"/><path class="cls-1" d="M62.23,48l5.62,5.62a1.61,1.61,0,1,0,2.28-2.27l-5.62-5.62A1.61,1.61,0,0,0,62.23,48Z" transform="translate(-50.88 -34.32)"/><path class="cls-1" d="M88,35.93v8a1.61,1.61,0,1,0,3.22,0v-8a1.61,1.61,0,1,0-3.22,0Z" transform="translate(-50.88 -34.32)"/><path class="cls-1" d="M67.85,92.6l-5.62,5.62a1.61,1.61,0,0,0,2.28,2.27l5.62-5.62a1.61,1.61,0,1,0-2.28-2.27Z" transform="translate(-50.88 -34.32)"/><path class="cls-1" d="M93.39,49.62a1.53,1.53,0,1,1-.48,3,19.77,19.77,0,0,0-3.27-.27A20.22,20.22,0,0,0,69.42,72.8c0,7.68,4.8,13.11,8,18.09a29.82,29.82,0,0,1,2.79,5.4,27,27,0,0,1,1.12,3.63c.11.54.21,1,.29,1.56l1.13.37,15.08,5a1.58,1.58,0,0,1,1.07,2h0a1.56,1.56,0,0,1-1.94,1.06l-15.16-5c-2.11-.7-2.93-1.08-3.08-1.89a24.47,24.47,0,0,0-.49-3,23,23,0,0,0-1.29-3.63,30.07,30.07,0,0,0-2.06-3.75c-3.27-5.13-8.46-11.16-8.46-19.74a23.26,23.26,0,0,1,27-23.18Zm13.53,39.19c-.87,1.31-1.73,2.54-2.49,3.73a29.68,29.68,0,0,0-2.07,3.77,24,24,0,0,0-1.28,3.6,32.21,32.21,0,0,0-.8,4.15c-.1.9-.51,1.6-1.43,1.6a1.49,1.49,0,0,1-1.6-1.71,37.44,37.44,0,0,1,.73-4,28.73,28.73,0,0,1,1.12-3.64,30.06,30.06,0,0,1,2.79-5.39c.71-1.12,1.5-2.26,2.31-3.44C105.59,85.47,108,87.14,106.92,88.81Z" transform="translate(-50.88 -34.32)"/><path class="cls-1" d="M80.28,108.57h0a1.57,1.57,0,0,1,1.93-1.09l15.52,5.16a1.57,1.57,0,0,1,1.09,1.93h0a1.57,1.57,0,0,1-1.93,1.09L81.38,110.5A1.57,1.57,0,0,1,80.28,108.57Zm1.1,7.71,15.51,5.16a1.57,1.57,0,0,0,1.93-1.09h0a1.57,1.57,0,0,0-1.09-1.93l-15.52-5.16a1.57,1.57,0,0,0-1.93,1.1h0A1.56,1.56,0,0,0,81.38,116.28Zm3.53,5.48a.77.77,0,0,0-.76.91,5.49,5.49,0,0,0,10.8,0,.77.77,0,0,0-.75-.91Z" transform="translate(-50.88 -34.32)"/><path class="cls-1" d="M77.52,84.58a1.58,1.58,0,0,1-1.2-.61c-8-10.89-1.4-20.55-1.12-21a1.6,1.6,0,0,1,2.09-.41,1.32,1.32,0,0,1,.46,1.91c-.24.36-5.76,8.59,1.08,17.92a1.3,1.3,0,0,1-.41,1.92A1.6,1.6,0,0,1,77.52,84.58Z" transform="translate(-50.88 -34.32)"/><path class="cls-1" d="M98.68,99.12" transform="translate(-50.88 -34.32)"/><path class="cls-1" d="M110.67,75.54a10.84,10.84,0,1,1,12.83-8.39,10.86,10.86,0,0,1-12.83,8.39m4-19a8.57,8.57,0,1,0,6.62,10.14,8.58,8.58,0,0,0-6.62-10.14" transform="translate(-50.88 -34.32)"/><path class="cls-1" d="M133.4,71.16a20.55,20.55,0,0,0,.57-2.38l-3.79-2-.08-4.26,3.72-2.16a21.31,21.31,0,0,0-1.61-4.69l-4.27.59-2.57-3.4,1.74-3.94a21.61,21.61,0,0,0-3.94-2.77l-3.11,3L116,47.82l-.88-4.21a21.06,21.06,0,0,0-5,.06l-.77,4.24-4.05,1.37-3.19-2.88a21.14,21.14,0,0,0-4,3L100,53.24l-2.46,3.48-4.28-.45A21.41,21.41,0,0,0,91.82,61l3.79,2,.06,4.27-3.73,2.15a21.54,21.54,0,0,0,1.6,4.7l4.27-.58L100.37,77l-1.75,3.94a21.53,21.53,0,0,0,4,2.85l3.11-3,4.08,1.26.89,4.22a21.7,21.7,0,0,0,5-.09l.76-4.24,4-1.39,3.2,2.88a21.35,21.35,0,0,0,4-3l-1.88-3.87,2.44-3.5,4.29.44A20.75,20.75,0,0,0,133.4,71.16Zm-15,7.08a14.41,14.41,0,1,1,7.77-18.87A14.41,14.41,0,0,1,118.42,78.24Z" transform="translate(-50.88 -34.32)"/></svg>