<svg id="Layer_1" data-name="Layer 1" xmlns="http://www.w3.org/2000/svg" viewBox="0 0 69.01 75.92"><defs><style>.cls-1{fill:#ed1c24;}</style></defs><path class="cls-1" d="M72.44,50.88v23.3h35.33V50.88Zm33.08,21.05H74.7V53.13h30.82Z" transform="translate(-66.43 -46.37)"/><rect class="cls-1" x="10.9" y="20.75" width="3.01" height="2.26"/><rect class="cls-1" x="33.45" y="20.75" width="3.01" height="2.26"/><rect class="cls-1" x="98.37" y="61.48" width="3.01" height="2.26" transform="translate(-84.35 11.99) rotate(-30.02)"/><rect class="cls-1" x="94.24" y="57.35" width="3.01" height="2.26" transform="translate(-69.22 65.76) rotate(-59.98)"/><rect class="cls-1" x="22.55" y="9.1" width="2.25" height="3.01"/><rect class="cls-1" x="83.34" y="56.97" width="2.25" height="3.01" transform="translate(-84.35 3.66) rotate(-29.97)"/><rect class="cls-1" x="79.22" y="61.1" width="2.26" height="3.01" transform="translate(-80.47 54.53) rotate(-60.01)"/><rect class="cls-1" x="87.1" y="61.23" width="2.25" height="7.52" transform="translate(-87.11 6.52) rotate(-30.04)"/><path class="cls-1" d="M133.18,66.21V59l-4.52-3.34-1.34,1.81,3.61,2.67v6.12h-2.26v3.53l-4.51,3V82h2.25v4.51h2.26v23.68a3.23,3.23,0,1,1-6.46,0V93.5A5.5,5.5,0,0,0,116.72,88h-7.44V78.69h3V46.37H67.93V78.69h3v36.83H66.43v6.77h47.36v-6.77h-4.51V90.27h7.44A3.23,3.23,0,0,1,120,93.5v16.69a5.49,5.49,0,0,0,11,0V86.51h2.25V82h2.26V66.21Zm-21.65,51.57V120H68.68v-2.25Zm-38.34-2.26V78.69H107v36.83Zm-3-39.08V48.62H110V76.44Zm60.74,7.81h-2.26V82h2.26Zm2.25-4.51h-6.77V74l4.52-3V68.47h2.25V79.74Z" transform="translate(-66.43 -46.37)"/><path class="cls-1" d="M93.22,84.08V98.36H103V84.08Zm7.51,12H95.47V86.33h5.26V96.1Z" transform="translate(-66.43 -46.37)"/><polygon class="cls-1" points="9.02 40.22 11.27 40.22 11.27 36.83 14.66 36.83 14.66 34.58 9.02 34.58 9.02 40.22"/></svg>