<svg id="Layer_1" data-name="Layer 1" xmlns="http://www.w3.org/2000/svg" viewBox="0 0 74.82 82.48"><defs><style>.cls-1{fill:#ed1c24;}</style></defs><path class="cls-1" d="M120.14,54.73a7.79,7.79,0,1,0-7.79,7.79A7.79,7.79,0,0,0,120.14,54.73Zm-7.79,3a3,3,0,1,1,3-3A3,3,0,0,1,112.35,57.69Z" transform="translate(-55.02 -38.03)"/><path class="cls-1" d="M119.4,93.74H65.32a5.48,5.48,0,0,1,0-10.95h47.1l11.34-15.36c2.79-3.81,5.3-7.64,5.3-12.7A16.73,16.73,0,0,0,112.45,38h-.1a16.72,16.72,0,0,0-16.7,16.7c0,5.06,2.51,8.89,5.3,12.7L108.66,78H65.32a10.31,10.31,0,0,0,0,20.62H119.4a5.6,5.6,0,0,1,0,11.2H71.32a8.33,8.33,0,1,0,0,4.83H119.4a10.43,10.43,0,1,0,0-20.86ZM104.84,64.57c-2.38-3.25-4.36-6.24-4.36-9.84a11.89,11.89,0,0,1,11.81-11.87h.06a11.88,11.88,0,0,1,11.87,11.87c0,3.6-2,6.59-4.36,9.84l-7.38,10.08-.12.17Zm-41.5,51.11a3.5,3.5,0,1,1,3.5-3.49A3.5,3.5,0,0,1,63.34,115.68Z" transform="translate(-55.02 -38.03)"/></svg>