<svg id="Layer_1" data-name="Layer 1" xmlns="http://www.w3.org/2000/svg" viewBox="0 0 92.47 72.82"><defs><style>.cls-1{fill:#ed1c24;}.cls-2{fill:#fff;}</style></defs><path class="cls-1" d="M110.31,94.5l-3.84-3.84a1.29,1.29,0,0,0-.91-.37H80.49a1.26,1.26,0,0,0-.9.37L75.74,94.5a1.29,1.29,0,0,0-.29,1.35l5.12,13.71a1.29,1.29,0,0,0,1.2.84h22.51a1.28,1.28,0,0,0,1.2-.84l5.13-13.71A1.29,1.29,0,0,0,110.31,94.5ZM82.17,108.65,77.28,95.52l3.13-3.24,3.66,16.37Zm3.54,0L82.14,92.06H87l1.6,16.59Zm6.49,0H90.26L88.73,92.06H92.2Zm9.77,0,3.66-16.37,3.12,3.24-4.89,13.13Zm-4.53,0L99,92.06h4.86l-3.57,16.59Zm-3.6-16.59H97.3l-1.52,16.59H93.84Z" transform="translate(-54.6 -49.89)"/><path class="cls-1" d="M117.66,81.92l-5.51-12.8a1.27,1.27,0,0,0-1.19-.81H75.09a1.29,1.29,0,0,0-1.19.81l-5.5,12.8a1.28,1.28,0,0,0,.71,1.67,1.32,1.32,0,0,0,.48.09h46.88a1.28,1.28,0,0,0,1.28-1.28A1.36,1.36,0,0,0,117.66,81.92Zm-47.12-.29,4.73-11.27h35.51l4.74,11.27Z" transform="translate(-54.6 -49.89)"/><path class="cls-1" d="M55.72,87.22a3.8,3.8,0,0,0-1.12,2.72v18.67a6.4,6.4,0,0,0,5.12,6.28v4a3.84,3.84,0,0,0,3.84,3.85h5.89a3.84,3.84,0,0,0,3.84-3.85V115h39.47v3.84a3.85,3.85,0,0,0,3.85,3.85h5.88a3.85,3.85,0,0,0,3.85-3.85v-4a6.41,6.41,0,0,0,5.12-6.28V89.94a3.81,3.81,0,0,0-1.13-2.72l-6-4.12h3.31a3.85,3.85,0,0,0,0-7.69h-2.57a3.84,3.84,0,0,0-3.49,2.26l-5.29-11.46a3.86,3.86,0,0,0-3.53-2.33H73.35A3.83,3.83,0,0,0,69.92,66L64.5,77.67A3.33,3.33,0,0,0,61,75.41H58.44a3.85,3.85,0,0,0,0,7.69h3.31Zm7.59-6.17H57.92a1.8,1.8,0,0,1,0-3.59h3.6a1.79,1.79,0,0,1,1.79,1.79Zm59.43-1.8a1.8,1.8,0,0,1,1.8-1.79h3.59a1.8,1.8,0,1,1,0,3.59h-5.39ZM61.81,115H71.2v4.32a1.43,1.43,0,0,1-1.43,1.44H63.25a1.43,1.43,0,0,1-1.44-1.44ZM56.62,90A1.3,1.3,0,0,1,57,89l7.19-5.29,7.72-17a1.27,1.27,0,0,1,1.16-.72h40a1.29,1.29,0,0,1,1.19.79l7.61,16.85L129.06,89a1.3,1.3,0,0,1,.38.92v19a3.91,3.91,0,0,1-3.9,3.91h-65a3.91,3.91,0,0,1-3.9-3.91ZM114.85,115h9.4v4.32a1.44,1.44,0,0,1-1.44,1.44h-6.52a1.43,1.43,0,0,1-1.44-1.44Z" transform="translate(-54.6 -49.89)"/><path class="cls-1" d="M126.28,90.24h-5.5a6.36,6.36,0,0,0-5.94,4.06l-1.28,3.2a1.29,1.29,0,0,0,.72,1.68,1.27,1.27,0,0,0,.47.09h9a3.85,3.85,0,0,0,3.84-3.87V91.53A1.28,1.28,0,0,0,126.28,90.24Zm-.36,5.55a2.14,2.14,0,0,1-1.75,1.79h-8.79l.72-2.09a4.89,4.89,0,0,1,4.5-3.56h5.32Zm1.64,13.52a1.08,1.08,0,0,1-1.08,1.09H110.74c-1,0-1.31-.51-1-1.26.93-2.34,1.47-4,2.21-5.76a1.78,1.78,0,0,1,1.46-1.09h13.08a1.08,1.08,0,0,1,1.08,1.09Zm-1.64-4.75a.63.63,0,0,0-.63-.64H114.07a1,1,0,0,0-.86.64c-.43,1.06-.75,2.09-1.31,3.47-.17.45,0,.75.6.75h12.79a.64.64,0,0,0,.63-.65Zm-67.39-13V95.4a3.85,3.85,0,0,0,3.84,3.87h9a1.27,1.27,0,0,0,.47-.09,1.29,1.29,0,0,0,.72-1.68l-1.28-3.2a6.36,6.36,0,0,0-5.94-4.06h-5.5A1.28,1.28,0,0,0,58.53,91.53Zm1.64.4h5.32A4.87,4.87,0,0,1,70,95.49l.73,2.09H61.92a2.14,2.14,0,0,1-1.75-1.79Zm-1.64,11.45a1.08,1.08,0,0,1,1.07-1.09H72.69a1.78,1.78,0,0,1,1.46,1.09c.74,1.8,1.28,3.42,2.21,5.76.3.75,0,1.26-1,1.26H59.6a1.08,1.08,0,0,1-1.07-1.09Zm1.64,4.75a.64.64,0,0,0,.63.65H73.59c.58,0,.77-.3.6-.75-.56-1.38-.88-2.41-1.31-3.47a1,1,0,0,0-.86-.64H60.8a.63.63,0,0,0-.63.64Z" transform="translate(-54.6 -49.89)"/><path class="cls-1" d="M147.07,103.25l-10.89-5,10.89-5Z" transform="translate(-54.6 -49.89)"/><path class="cls-2" d="M145.38,100.53l-5.88-2.28L145.38,96Z" transform="translate(-54.6 -49.89)"/><path class="cls-1" d="M98,49.89,93,60.78,88,49.89Z" transform="translate(-54.6 -49.89)"/><path class="cls-2" d="M95.31,51.58,93,57.46l-2.28-5.88Z" transform="translate(-54.6 -49.89)"/></svg>