<svg id="Layer_1" data-name="Layer 1" xmlns="http://www.w3.org/2000/svg" viewBox="0 0 90.13 90.68"><defs><style>.cls-1{fill:#ed1c24;}</style></defs><path class="cls-1" d="M126.39,49.26a1.46,1.46,0,1,1-1.46,1.46A1.46,1.46,0,0,1,126.39,49.26Z" transform="translate(-61.77 -24.67)"/><path class="cls-1" d="M118,63.17Z" transform="translate(-61.77 -24.67)"/><path class="cls-1" d="M113.94,59.1s0,0,0,0Z" transform="translate(-61.77 -24.67)"/><path class="cls-1" d="M148.25,47.48h-1.79a23.26,23.26,0,0,0-2.73-6.58L145,39.63a3.64,3.64,0,0,0,0-5.16l-2.9-2.9a3.66,3.66,0,0,0-5.16,0l-1.26,1.26a23.79,23.79,0,0,0-6.59-2.73V28.32a3.66,3.66,0,0,0-3.65-3.65h-4.1a3.66,3.66,0,0,0-3.65,3.65V30.1a23.79,23.79,0,0,0-6.59,2.73l-1.26-1.26a3.66,3.66,0,0,0-5.16,0l-2.91,2.9a3.66,3.66,0,0,0,0,5.16L103,40.9a23.56,23.56,0,0,0-2.73,6.58H98.52a3.66,3.66,0,0,0-3.66,3.65v4.11a3.66,3.66,0,0,0,3.66,3.65h1.78A23.62,23.62,0,0,0,103,65.44l.31.54L79.19,90.12A13,13,0,0,0,62.63,107a1.31,1.31,0,0,0,1,.82,1.32,1.32,0,0,0,1.21-.36l6.78-6.78,3.35,1.38,1.48,3.47-6.77,6.77a1.32,1.32,0,0,0,.46,2.17A13,13,0,0,0,87,97.92l4.47-4.47a1.32,1.32,0,0,0-1.87-1.87l-5.09,5.09a1.32,1.32,0,0,0-.28,1.47,10.35,10.35,0,0,1-11.11,14.43l5.79-5.79a1.31,1.31,0,0,0,.28-1.45l-2-4.8a1.37,1.37,0,0,0-.72-.7l-4.66-1.92a1.33,1.33,0,0,0-1.44.29L64.54,104A10.35,10.35,0,0,1,79,92.88a1.32,1.32,0,0,0,1.47-.28l33.5-33.5a1.3,1.3,0,0,0,.27-1.47A10.37,10.37,0,0,1,125.33,43.2h0l-5.8,5.8,0,0h0l0,0h0v0h0v0h0v0h0v0h-.07v0h0v0h0v0h0v0h0v0h0v0h0v0h0v0h0v0h0v0h0v0h0v0h0v0h0v0h0v0h0v0h0v0h0v0h0v0h0a0,0,0,0,1,0,0h0v0h0v0h0v0h0v0h0v0h0v0h0v0h0l1.93,4.65a1.33,1.33,0,0,0,.7.7l4.77,2.07a1.34,1.34,0,0,0,1.46-.28l5.81-5.81A10.35,10.35,0,0,1,119.48,62.9a1.32,1.32,0,0,0-1.47.28L93.34,87.84a1.32,1.32,0,0,0,1.87,1.87l16.06-16.07a23.52,23.52,0,0,0,6.41,2.62v1.79a3.66,3.66,0,0,0,3.65,3.65h4.1a3.65,3.65,0,0,0,3.65-3.65V76.26a23.47,23.47,0,0,0,6.59-2.72l1.26,1.26a3.66,3.66,0,0,0,5.17,0l2.9-2.9a3.65,3.65,0,0,0,0-5.16l-1.27-1.27a23.26,23.26,0,0,0,2.73-6.58h1.79a3.66,3.66,0,0,0,3.65-3.65V51.13A3.66,3.66,0,0,0,148.25,47.48ZM129.56,52.4l-2.68,2.67-3.47-1.6L122,50.25l3.33-3.33L129.07,48l1.12,3.72Zm19.69,2.84a1,1,0,0,1-1,1h-2.46A1.82,1.82,0,0,0,144,57.67a21.08,21.08,0,0,1-2.88,7,1.83,1.83,0,0,0,.24,2.25l1.73,1.74a1,1,0,0,1,0,1.42l-2.89,2.9a1,1,0,0,1-1.43,0l-1.74-1.74a1.81,1.81,0,0,0-2.25-.23,21.11,21.11,0,0,1-7,2.88,1.8,1.8,0,0,0-1.42,1.76v2.45a1,1,0,0,1-1,1h-4.1a1,1,0,0,1-1-1V75.6a1.8,1.8,0,0,0-1.42-1.76,21.35,21.35,0,0,1-5.69-2.13l2.51-2.51A17.77,17.77,0,0,0,140.8,56.6a1.32,1.32,0,0,0-2.6-.51,15.09,15.09,0,0,1-20.47,11.1l1.53-1.53a13,13,0,0,0,16.56-16.89,1.33,1.33,0,0,0-2.17-.47l-1.34,1.34-.91-3a1.33,1.33,0,0,0-.88-.89l-3.05-.91,1.34-1.34a1.32,1.32,0,0,0-.46-2.17,13,13,0,0,0-16.89,16.56L109.7,59.6a15.11,15.11,0,1,1,28.66-8.37,1.32,1.32,0,1,0,2.62-.34,17.75,17.75,0,1,0-33.24,10.68l-2.48,2.48a21.07,21.07,0,0,1-2.53-6.38A1.82,1.82,0,0,0,101,56.24H98.52a1,1,0,0,1-1-1V51.13a1,1,0,0,1,1-1H101a1.82,1.82,0,0,0,1.76-1.43,21.29,21.29,0,0,1,2.88-7,1.8,1.8,0,0,0-.24-2.25l-1.74-1.74a1,1,0,0,1,0-1.42l2.91-2.9a1,1,0,0,1,1.42,0l1.74,1.74a1.83,1.83,0,0,0,2.25.24,20.7,20.7,0,0,1,7-2.88,1.82,1.82,0,0,0,1.42-1.77V28.32a1,1,0,0,1,1-1h4.1a1,1,0,0,1,1,1v2.45a1.8,1.8,0,0,0,1.42,1.76,20.92,20.92,0,0,1,7,2.89,1.83,1.83,0,0,0,2.25-.24l1.74-1.74a1,1,0,0,1,1.43,0l2.9,2.9a1,1,0,0,1,0,1.42l-1.74,1.74a1.84,1.84,0,0,0-.24,2.26A20.73,20.73,0,0,1,144,48.7a1.82,1.82,0,0,0,1.76,1.43h2.46a1,1,0,0,1,1,1v4.11Z" transform="translate(-61.77 -24.67)"/><path class="cls-1" d="M88.66,50.85h-.74a11,11,0,0,0-.49-1.19l.52-.52a2,2,0,0,0,0-2.81L85.65,44a2,2,0,0,0-1.41-.58,2,2,0,0,0-1.4.58l-.52.52a11,11,0,0,0-1.19-.49v-.74a2,2,0,0,0-2-2H75.88a2,2,0,0,0-2,2v.74a9.59,9.59,0,0,0-1.19.49L72.18,44a2,2,0,0,0-2.8,0l-2.3,2.3a2,2,0,0,0,0,2.81l.52.52a11,11,0,0,0-.49,1.19h-.74a2,2,0,0,0-2,2V56.1a2,2,0,0,0,2,2h.74a10.26,10.26,0,0,0,.49,1.19l-.52.52a2,2,0,0,0,0,2.81l2.3,2.31a2,2,0,0,0,2.8,0l.53-.53a9.59,9.59,0,0,0,1.19.49v.75a2,2,0,0,0,2,2h3.26a2,2,0,0,0,2-2v-.75a11,11,0,0,0,1.19-.49l.52.53a2,2,0,0,0,1.4.58,2,2,0,0,0,1.41-.58L88,62.6a2,2,0,0,0,0-2.81l-.52-.52a10.26,10.26,0,0,0,.49-1.19h.74a2,2,0,0,0,2-2V52.84A2,2,0,0,0,88.66,50.85ZM88,55.44H86.93a1.31,1.31,0,0,0-1.28,1,8.66,8.66,0,0,1-1,2.37,1.32,1.32,0,0,0,.19,1.62l.75.76-1.37,1.37-.75-.76a1.32,1.32,0,0,0-1.62-.19,8.25,8.25,0,0,1-2.38,1,1.32,1.32,0,0,0-1,1.28V65H76.54V63.88a1.31,1.31,0,0,0-1-1.28,8.08,8.08,0,0,1-2.37-1,1.32,1.32,0,0,0-1.62.19l-.76.76L69.41,61.2l.76-.76a1.32,1.32,0,0,0,.19-1.62,8.08,8.08,0,0,1-1-2.37,1.33,1.33,0,0,0-1.29-1H67V53.5h1.06a1.34,1.34,0,0,0,1.29-1,8.14,8.14,0,0,1,1-2.38,1.32,1.32,0,0,0-.19-1.62l-.76-.75,1.37-1.37.76.75a1.32,1.32,0,0,0,1.62.19,8.36,8.36,0,0,1,2.37-1,1.31,1.31,0,0,0,1-1.28V44h1.94v1.07a1.32,1.32,0,0,0,1,1.28,8.54,8.54,0,0,1,2.38,1,1.32,1.32,0,0,0,1.62-.19l.75-.75,1.37,1.37-.75.75a1.32,1.32,0,0,0-.19,1.62,8.72,8.72,0,0,1,1,2.38,1.32,1.32,0,0,0,1.28,1H88v1.94Z" transform="translate(-61.77 -24.67)"/><path class="cls-1" d="M77.51,48A6.44,6.44,0,1,0,84,54.47,6.44,6.44,0,0,0,77.51,48Zm0,10.23a3.79,3.79,0,1,1,3.79-3.79A3.8,3.8,0,0,1,77.51,58.26Z" transform="translate(-61.77 -24.67)"/><path class="cls-1" d="M134.84,94.57h-.74a9.59,9.59,0,0,0-.49-1.19l.52-.53a2,2,0,0,0,0-2.8l-2.3-2.31a2,2,0,0,0-1.4-.58,2,2,0,0,0-1.41.58l-.52.53a10.32,10.32,0,0,0-1.19-.5V87a2,2,0,0,0-2-2h-3.27a2,2,0,0,0-2,2v.74a10.32,10.32,0,0,0-1.19.5l-.52-.53a2,2,0,0,0-2.81,0l-2.3,2.31a2,2,0,0,0,0,2.8l.52.53a9.59,9.59,0,0,0-.49,1.19h-.74a2,2,0,0,0-2,2v3.26a2,2,0,0,0,2,2h.74a10.41,10.41,0,0,0,.49,1.2l-.52.52a2,2,0,0,0,0,2.8l2.3,2.31a2,2,0,0,0,2.81,0l.52-.52a12.39,12.39,0,0,0,1.19.49v.74a2,2,0,0,0,2,2h3.27a2,2,0,0,0,2-2v-.74a12.39,12.39,0,0,0,1.19-.49l.52.52a2,2,0,0,0,1.41.58,2,2,0,0,0,1.4-.58l2.3-2.31a2,2,0,0,0,0-2.8l-.52-.52a10.41,10.41,0,0,0,.49-1.2h.74a2,2,0,0,0,2-2V96.55A2,2,0,0,0,134.84,94.57Zm-.65,4.58h-1.08a1.32,1.32,0,0,0-1.28,1,8.08,8.08,0,0,1-1,2.37,1.33,1.33,0,0,0,.19,1.63l.76.75-1.37,1.37-.76-.75a1.33,1.33,0,0,0-1.62-.2,8.51,8.51,0,0,1-2.37,1,1.31,1.31,0,0,0-1,1.28v1.07h-1.94V107.6a1.32,1.32,0,0,0-1-1.28,8.44,8.44,0,0,1-2.38-1,1.33,1.33,0,0,0-1.62.2l-.76.75-1.36-1.37.75-.75a1.33,1.33,0,0,0,.19-1.63,8.66,8.66,0,0,1-1-2.37,1.32,1.32,0,0,0-1.28-1h-1.07V97.21h1.07a1.32,1.32,0,0,0,1.28-1,8.66,8.66,0,0,1,1-2.37,1.33,1.33,0,0,0-.19-1.63l-.75-.75L117,90.08l.76.75a1.3,1.3,0,0,0,1.62.2,8.14,8.14,0,0,1,2.38-1,1.34,1.34,0,0,0,1-1.29V87.69h1.94v1.07a1.33,1.33,0,0,0,1,1.29,8.19,8.19,0,0,1,2.37,1,1.3,1.3,0,0,0,1.62-.2l.76-.75,1.37,1.37-.76.75a1.33,1.33,0,0,0-.19,1.63,8.08,8.08,0,0,1,1,2.37,1.32,1.32,0,0,0,1.28,1h1.08Z" transform="translate(-61.77 -24.67)"/><path class="cls-1" d="M123.7,91.75a6.43,6.43,0,1,0,6.43,6.43A6.44,6.44,0,0,0,123.7,91.75Zm0,10.22a3.79,3.79,0,1,1,3.78-3.79A3.79,3.79,0,0,1,123.7,102Z" transform="translate(-61.77 -24.67)"/></svg>